<svg xmlns="http://www.w3.org/2000/svg" xmlns:xlink="http://www.w3.org/1999/xlink" width="1080" zoomAndPan="magnify" viewBox="0 0 810 809.999993" height="1080" preserveAspectRatio="xMidYMid meet" version="1.0"><path fill="#000000" d="M 478.3125 14.328125 C 460.503906 31.148438 438.296875 64.238281 428.621094 88.3125 C 420.046875 109.53125 415.761719 128 415.761719 143.613281 L 415.761719 152.1875 L 399.597656 151.855469 L 383.328125 151.527344 L 383.660156 145.480469 C 383.988281 140.09375 386.957031 121.515625 388.933594 111.511719 C 389.707031 107.882812 389.707031 107.773438 386.515625 108.542969 C 382.007812 109.640625 364.417969 118.105469 353.097656 124.59375 C 340.453125 131.847656 314.949219 150.867188 304.066406 160.980469 C 278.339844 185.386719 254.59375 220.566406 249.425781 242.226562 C 247.335938 250.46875 245.359375 265.863281 245.359375 272.675781 C 245.359375 275.753906 244.917969 277.40625 244.039062 277.40625 C 237.332031 277.515625 211.828125 292.464844 164.003906 324.128906 C 143.777344 337.539062 122.121094 351.613281 115.851562 355.351562 C 109.695312 359.199219 104.308594 362.824219 103.871094 363.484375 C 102.660156 365.464844 103.429688 373.050781 105.300781 376.675781 C 111.347656 388.441406 134.761719 417.023438 138.390625 417.023438 C 138.941406 417.023438 142.128906 413.726562 145.316406 409.769531 L 151.144531 402.511719 L 156.199219 403.0625 C 158.949219 403.28125 169.171875 404.382812 178.847656 405.371094 C 203.914062 407.898438 217.105469 406.140625 239.09375 397.34375 C 266.027344 386.570312 287.683594 372.171875 311.539062 349.195312 C 321.433594 339.628906 329.351562 333.144531 338.476562 327.207031 C 345.621094 322.589844 354.964844 316.542969 359.144531 313.683594 C 368.925781 306.976562 382.121094 300.382812 397.730469 294.335938 C 431.589844 281.03125 465.453125 278.835938 500.082031 287.519531 C 515.144531 291.257812 523.496094 295.433594 533.171875 304.339844 C 539.769531 310.386719 549.882812 323.027344 549.882812 325.335938 C 549.882812 327.867188 542.40625 327.207031 528.335938 323.46875 C 521.078125 321.597656 507.886719 318.191406 498.761719 315.882812 C 489.746094 313.574219 480.183594 310.933594 477.65625 309.945312 C 471.058594 307.636719 460.503906 306.539062 457.753906 308.078125 C 455.886719 309.066406 455.667969 309.945312 456.105469 313.902344 C 456.4375 316.542969 457.425781 320.390625 458.304688 322.480469 C 460.945312 328.964844 461.382812 338.859375 459.183594 346.226562 C 454.898438 361.066406 442.035156 381.734375 432.03125 389.871094 C 429.390625 391.957031 421.035156 397.675781 413.339844 402.511719 C 405.644531 407.351562 395.972656 414.054688 391.902344 417.355469 C 387.835938 420.542969 379.261719 426.480469 372.886719 430.546875 C 362 437.363281 357.824219 440.441406 332.207031 460.890625 C 309.230469 479.25 297.136719 492.660156 281.855469 517.066406 C 254.921875 559.941406 247.667969 586.546875 247.558594 642.175781 C 247.558594 662.621094 248.765625 675.046875 252.394531 693.183594 C 254.921875 705.828125 261.300781 724.847656 262.949219 724.847656 C 263.496094 724.847656 264.15625 722.757812 264.597656 720.121094 C 265.035156 717.589844 266.578125 712.535156 268.003906 708.90625 C 269.324219 705.277344 272.953125 695.382812 275.921875 686.917969 C 289.222656 649.101562 314.070312 611.390625 345.621094 581.269531 C 360.902344 566.757812 403.335938 533.007812 430.050781 513.988281 C 436.976562 509.042969 446.980469 501.675781 452.257812 497.609375 C 457.535156 493.429688 467.871094 485.40625 475.34375 479.6875 C 503.160156 458.25 530.09375 428.019531 544.277344 402.183594 C 552.082031 387.890625 552.960938 385.914062 556.367188 373.929688 C 560.214844 360.078125 561.644531 350.621094 562.523438 332.375 C 563.625 309.835938 565.933594 294.996094 568.351562 294.996094 C 571.210938 294.996094 582.203125 332.59375 583.523438 347.324219 C 585.503906 369.203125 577.695312 402.292969 564.175781 429.667969 C 554.941406 448.246094 545.59375 461.109375 530.09375 476.390625 C 516.351562 490.132812 506.347656 498.046875 482.492188 514.429688 C 428.953125 551.035156 430.929688 549.609375 406.414062 569.945312 C 390.695312 583.027344 368.046875 605.566406 356.503906 619.746094 C 332.429688 649.320312 315.828125 682.632812 305.714844 721.328125 C 298.898438 747.601562 295.820312 803.011719 301.097656 804.769531 C 301.757812 804.992188 306.261719 799.382812 311.101562 792.238281 C 331.109375 762.773438 366.949219 725.617188 399.269531 700.441406 C 418.726562 685.378906 452.589844 664.492188 502.609375 636.898438 C 566.375 601.496094 597.265625 580.058594 622.992188 553.125 C 663.226562 510.910156 685.652344 466.605469 692.359375 415.925781 C 693.679688 405.589844 694.007812 397.015625 693.570312 381.292969 C 693.128906 362.605469 692.691406 359.085938 689.722656 347.433594 C 687.851562 340.289062 684.445312 329.625 682.246094 323.796875 C 677.957031 312.585938 662.898438 283.5625 655.53125 272.457031 C 653.113281 268.828125 651.355469 265.640625 651.683594 265.421875 C 651.902344 265.09375 656.519531 267.070312 661.796875 269.820312 C 679.496094 278.835938 697.746094 293.34375 708.410156 307.085938 C 728.089844 332.375 735.125 341.058594 735.457031 340.070312 C 736.664062 336.441406 723.800781 294.664062 715.117188 274.105469 C 697.527344 232.769531 663.335938 187.035156 621.230469 148.339844 C 609.578125 137.785156 599.355469 129.761719 598.472656 130.640625 C 598.253906 130.859375 598.585938 133.496094 599.242188 136.355469 C 604.300781 158.34375 602.324219 185.828125 593.308594 216.171875 C 587.589844 235.300781 587.480469 235.410156 583.523438 236.507812 C 581.542969 237.058594 575.167969 236.949219 568.570312 236.289062 L 557.027344 235.078125 L 557.25 231.453125 C 557.25 229.363281 559.445312 222.875 561.867188 216.941406 C 579.785156 173.734375 577.585938 136.246094 554.171875 89.082031 C 544.933594 70.394531 526.574219 45.660156 506.347656 24.660156 C 488.429688 5.972656 487.4375 5.53125 478.3125 14.328125 Z M 501.730469 96.449219 C 512.394531 112.941406 517.121094 129.871094 517.230469 150.976562 C 517.339844 165.820312 515.472656 172.304688 511.183594 171.644531 C 507.886719 171.207031 502.828125 162.410156 500.300781 152.738281 C 499.203125 148.339844 497.441406 142.84375 496.453125 140.535156 L 494.804688 136.355469 L 490.1875 140.753906 C 487.660156 143.171875 482.820312 146.910156 479.414062 149.109375 L 473.257812 152.957031 L 472.597656 146.46875 C 471.828125 137.347656 473.476562 119.867188 476.003906 111.730469 C 478.3125 104.253906 484.582031 92.492188 488.976562 87.214844 C 491.726562 84.027344 491.945312 83.917969 493.925781 85.675781 C 495.132812 86.773438 498.652344 91.613281 501.730469 96.449219 Z M 431.042969 225.296875 C 431.261719 225.515625 430.492188 228.042969 429.171875 230.902344 C 427.964844 233.761719 426.3125 239.035156 425.542969 242.445312 L 424.226562 248.820312 L 411.144531 248.820312 C 383.546875 248.820312 367.609375 255.636719 352.765625 273.886719 C 349.25 278.066406 345.621094 281.914062 344.632812 282.351562 C 341.664062 283.453125 320.886719 287.300781 320.335938 286.859375 C 320.117188 286.640625 321.214844 283.011719 322.644531 278.835938 C 331 255.746094 346.171875 239.367188 367.058594 230.902344 C 375.742188 227.382812 382.558594 225.84375 393.773438 224.746094 C 402.128906 223.976562 429.941406 224.414062 431.042969 225.296875 Z M 431.042969 225.296875 " fill-opacity="1" fill-rule="nonzero"/><path fill="#000000" d="M 293.511719 13.226562 C 289.003906 17.953125 286.804688 22.132812 280.648438 37.304688 C 272.183594 58.300781 266.578125 82.046875 264.046875 107.554688 C 262.289062 124.703125 262.949219 156.035156 265.035156 159.773438 L 266.578125 162.410156 L 267.457031 159.882812 C 270.425781 152.078125 290.210938 131.300781 306.375 119.097656 C 326.273438 104.144531 352.875 89.304688 373.433594 81.9375 C 378.160156 80.179688 382.230469 78.308594 382.339844 77.761719 C 382.667969 76.660156 361.121094 56.761719 351.996094 49.617188 C 348.699219 47.085938 341.222656 40.929688 335.507812 36.09375 C 314.398438 18.066406 302.085938 9.160156 298.347656 9.160156 C 297.90625 9.160156 295.710938 11.027344 293.511719 13.226562 Z M 293.511719 13.226562 " fill-opacity="1" fill-rule="nonzero"/><path fill="#000000" d="M 363.539062 368.871094 C 362.332031 369.53125 359.582031 371.402344 357.492188 373.050781 C 355.40625 374.699219 349.25 378.765625 343.75 382.0625 C 306.484375 404.710938 253.382812 425.710938 217.984375 431.867188 C 205.230469 434.0625 176.976562 434.0625 165.105469 431.753906 C 160.15625 430.875 155.871094 430.328125 155.539062 430.546875 C 152.902344 433.183594 163.015625 443.957031 174.230469 450.445312 C 185.773438 457.152344 210.507812 462.976562 221.613281 461.546875 C 229.308594 460.558594 243.269531 456.929688 250.085938 454.292969 C 253.273438 452.972656 260.308594 450.335938 265.695312 448.355469 C 286.914062 440.550781 302.414062 433.625 310.769531 428.238281 C 315.609375 425.160156 323.195312 420.324219 327.589844 417.574219 C 336.496094 412.078125 356.066406 397.566406 361.671875 392.398438 C 367.167969 387.339844 368.488281 384.042969 368.488281 375.25 C 368.488281 367.113281 367.9375 366.453125 363.539062 368.871094 Z M 363.539062 368.871094 " fill-opacity="1" fill-rule="nonzero"/></svg>